<?xml version="1.0" encoding="utf-8"?>
<!-- Generator: Adobe Illustrator 24.1.1, SVG Export Plug-In . SVG Version: 6.00 Build 0)  -->
<svg version="1.1" id="Capa_1" xmlns="http://www.w3.org/2000/svg" xmlns:xlink="http://www.w3.org/1999/xlink" x="0px" y="0px"
	 viewBox="0 0 300 200" style="enable-background:new 0 0 300 200;" xml:space="preserve">
<style type="text/css">
	.st0{fill:#19A14C;}
	.st1{fill:#499ED7;}
	.st2{fill:#344A96;}
	.st3{fill:#76C043;}
</style>
<g>
	<path class="st0" d="M-524.8-112.12c-6.95,2.3-12.62,7.51-15.57,14.28c-4.47,10.27-1.87,22.26,6.47,29.84
		c8.37,7.61,20.89,8.91,30.43,3.16c10.23-6.16,20.31-9.67,30.82-10.73c1.99-0.2,4.08-0.32,6.37-0.35c1.33-0.02,3.06,0.11,3.83,0.87
		c0.63,0.62,0.97,2,0.97,4c0.02,8.12,0.02,16.24,0.01,24.36l0,10.04c0,3,0,6.01,0.01,9.01c0.01,8.44,0.02,17.16-0.06,25.73
		c-0.01,1.03-0.04,3.43,1.72,5.19c1.56,1.57,3.59,1.73,5.15,1.75c17.96-0.09,37.65-0.1,60.18-0.02c1.3-0.01,3.72,0.01,5.37-1.94
		c1.68-1.98,1.24-4.51,1.05-5.59c-1.36-7.86-4.32-15.52-9.33-24.13c-5.08-8.74-5.9-19.13-2.25-28.52
		c3.62-9.32,11.16-16.36,20.68-19.33c12.71-3.96,26.86,0.23,35.19,10.44c8.54,10.47,9.9,24.78,3.46,36.47
		c-3.9,7.08-8.12,15.64-9.81,25.47c-0.16,0.91-0.57,3.32,1.05,5.24c1.58,1.87,3.84,1.86,5.05,1.86l5.46-0.02
		c13.15-0.04,26.75-0.09,40.11,0.08c0.07,0,0.16,0,0.25,0c1.03,0,3.34-0.12,4.98-1.86c1.71-1.82,1.55-4.08,1.45-5.44l-0.02-0.34
		c-1.79-27.46-9.47-52.82-22.81-75.37c-26.72-45.16-66.49-73.46-118.2-84.1c-6.78-1.4-13.55-2.05-20.46-2.65
		c-1.35-0.12-4.16-0.36-6.24,1.56c-1.86,1.73-2.08,4.14-2.06,6.06c0.15,13.47,0.13,27.19,0.1,40.45c-0.01,4.08-0.01,8.16-0.02,12.24
		c0,3.29-0.61,4.37-0.97,4.72c-0.35,0.35-1.42,0.91-4.6,0.84c-11.89-0.26-23.75-3.87-36.24-11.01
		C-509.9-113.63-517.74-114.46-524.8-112.12z"/>
	<path class="st1" d="M-396.43,124.05c10.37-8.9,12.25-23.97,4.37-35.05c-7.95-11.17-22.81-14.26-34.58-7.19
		c-10.02,6.02-20,9.47-30.5,10.54c-1.79,0.18-3.4,0.29-4.9,0.32c-3.79,0.08-4.96-0.49-5.32-0.84c-0.35-0.34-0.94-1.46-0.94-5.14
		c0-7.68,0-15.36,0-23.04l0-10.24c0-3.03,0-6.06-0.01-9.08c-0.01-8.41-0.03-17.11,0.07-25.65c0.02-1.58-0.16-3.6-1.72-5.17
		c-1.56-1.57-3.54-1.74-5.18-1.75c-18.87,0.09-38.55,0.1-60.18,0.01c-1.18,0-3.68-0.02-5.33,1.94c-1.67,1.97-1.24,4.52-1.05,5.61
		c1.35,7.87,4.31,15.54,9.33,24.14c4.92,8.43,5.86,18.5,2.59,27.62c-3.27,9.11-10.36,16.27-19.47,19.63
		c-12.88,4.77-27.05,1.17-36.1-9.15c-9.03-10.3-10.67-25.26-4.08-37.23c3.82-6.94,7.96-15.35,9.74-25.05
		c0.18-0.97,0.65-3.56-1.03-5.57c-1.64-1.95-4.02-1.94-5.42-1.93c-14.43,0.07-29.79,0.12-44.82-0.04h0
		c-1.53-0.02-3.84,0.16-5.49,1.91c-1.82,1.93-1.64,4.51-1.55,5.75c1.91,27.59,9.61,52.94,22.88,75.34
		c26.79,45.23,66.56,73.52,118.2,84.09c7.04,1.44,14.15,2.11,20.84,2.67c0.35,0.03,0.81,0.07,1.34,0.07c1.35,0,3.12-0.26,4.56-1.59
		c1.79-1.66,2-3.94,1.98-5.75c-0.13-13.42-0.11-27.08-0.09-40.29c0-4.13,0.01-8.26,0.01-12.39c0-3.61,0.61-4.74,0.97-5.09
		c0.36-0.35,1.48-0.93,4.98-0.82c11.75,0.31,23.38,3.85,35.56,10.83C-416.59,132.3-404.96,131.38-396.43,124.05z"/>
	<path class="st2" d="M-631.03,5.02c14.26-0.08,28.77-0.07,42.8-0.06l10.28,0.01c3.5,0,4.63,0.62,4.99,0.99
		c0.34,0.35,0.91,1.43,0.83,4.7c-0.28,11.88-3.78,23.51-10.71,35.56c-5.95,10.35-5.05,22.12,2.36,30.7
		c5.16,5.97,12.44,9.09,19.81,9.09c5.16,0,10.35-1.53,14.89-4.67c11.06-7.66,14.49-22.65,7.79-34.13
		c-5.53-9.47-8.75-17.71-10.15-25.92c-0.78-4.61-1.14-8.41-1.11-11.93c0.03-3.24,1.12-4.34,4.33-4.37
		c5.58-0.05,11.26-0.04,16.76-0.03c2.38,0,4.76,0.01,7.14,0.01h10.91c11.57,0,23.15,0,34.72-0.01c0,0,0,0,0,0
		c0.15,0,0.3,0.01,0.45,0.02c1.03,0.06,3.18,0.19,4.9-1.44c1.19-1.13,1.79-2.74,1.78-4.78c-0.08-14.75-0.08-29.75-0.08-44.26
		c0-6.06,0-12.11-0.01-18.18c0-0.91-0.25-1.61-0.39-2.03l-0.95-3.42l-3.39,0.38c-8.88,0.99-17.36,4.02-26.68,9.54
		c-7.75,4.59-16.76,5.82-25.37,3.48c-8.6-2.35-15.73-7.97-20.07-15.83c-6.94-12.57-4.77-28.51,5.27-38.75
		c10.25-10.45,26.23-12.91,38.86-5.98c7.7,4.23,16.16,8.36,25.83,9.94c0.98,0.16,3.27,0.54,5.13-1.05c1.84-1.57,1.83-3.85,1.83-4.82
		c-0.06-14.82-0.1-30.61,0.03-46.32c0.02-2.11-0.6-3.75-1.84-4.88c-1.79-1.63-3.99-1.4-5.06-1.3c-0.15,0.01-0.29,0.03-0.44,0.04
		c-22.22,1.32-42.93,6.52-61.57,15.48c-50.33,24.18-82.8,63.82-96.51,117.8c-2.13,8.39-3.52,17.63-4.37,29.09
		c-0.11,1.51-0.08,3.71,1.53,5.43C-634.72,5.04-632.12,5.03-631.03,5.02z"/>
	<path class="st3" d="M-293.35,13.82c-1.77-1.91-4.25-2.13-6.24-2.1c-13.18,0.17-26.59,0.14-39.56,0.12
		c-4.25-0.01-8.5-0.02-12.74-0.02c-3.46,0-4.57-0.61-4.92-0.97c-0.35-0.35-0.92-1.45-0.83-4.79c0.3-11.9,3.87-23.64,10.92-35.89
		c5.76-10.02,4.74-21.94-2.61-30.37c-8.83-10.13-23.76-11.99-34.72-4.32c-11.19,7.83-14.5,22.52-7.7,34.16
		c5.48,9.38,8.67,17.51,10.06,25.57c0.51,2.97,1.1,6.89,1.14,10.87c0.03,3.17-0.48,4.36-0.92,4.8c-0.42,0.43-1.55,0.94-4.55,0.94
		c-7.47,0.01-14.94,0.01-22.41,0.01l-9.38,0c-3.17,0-6.35,0-9.52,0.01c-8.88,0.01-18.07,0.03-27.09-0.07
		c-1.65-0.01-3.71,0.17-5.31,1.77c-1.61,1.6-1.8,3.68-1.8,5.31c0.1,18.9,0.1,38.46,0.01,59.8c0,1.23-0.02,3.78,1.99,5.47
		c2.02,1.71,4.64,1.25,5.77,1.06c7.75-1.35,15.41-4.33,24.1-9.38c7.62-4.43,16.5-5.58,25.03-3.26c8.55,2.33,15.64,7.86,19.96,15.55
		c7.09,12.63,4.95,28.69-5.21,39.05c-10.21,10.42-26.2,12.84-38.88,5.9c-8.28-4.53-17.43-8.9-28.23-10.19l-4.47-0.53v4.5
		c0,4.2,0,8.38,0.01,12.54c0.01,12.38,0.02,24.08-0.06,36.03c-0.02,2.13,0.62,3.78,1.88,4.9c1.22,1.08,2.6,1.32,3.7,1.32
		c0.55,0,1.03-0.06,1.38-0.1c0.14-0.02,0.29-0.04,0.43-0.05c23.07-1.42,44.48-6.98,63.62-16.5c51.9-25.83,84.24-67.76,96.13-124.64
		c1.36-6.48,1.96-13.09,2.55-19.48l0.06-0.61C-291.66,18.83-291.39,15.94-293.35,13.82z M-453.5,79.36
		C-453.5,79.36-453.5,79.36-453.5,79.36C-453.5,79.36-453.5,79.36-453.5,79.36z"/>
</g>
<path class="st2" d="M0,0c0,0,261,17,270,97s-7,103-7,103H0V0z"/>
</svg>
